<?xml version="1.0" encoding="UTF-8" standalone="no"?>
<!DOCTYPE svg PUBLIC "-//W3C//DTD SVG 1.1//EN"
 "http://www.w3.org/Graphics/SVG/1.1/DTD/svg11.dtd">
<!-- Generated by graphviz version 2.26.0 (20091210.2329)
 -->
<!-- Title: dag Pages: 1 -->
<svg width="1204pt" height="970pt"
 viewBox="0.00 0.00 1204.00 970.00" xmlns="http://www.w3.org/2000/svg" xmlns:xlink="http://www.w3.org/1999/xlink">
<g id="graph1" class="graph" transform="scale(1 1) rotate(0) translate(4 966)">
<title>dag</title>
<polygon fill="white" stroke="white" points="-4,5 -4,-966 1201,-966 1201,5 -4,5"/>
<!-- p0 -->
<g id="node1" class="node"><title>p0</title>
<ellipse fill="black" stroke="black" cx="561" cy="-958" rx="3.6" ry="3.6"/>
<text text-anchor="middle" x="1049" y="-954.9" font-family="Times Roman,serif" font-size="14.00">Channel.from</text>
</g>
<!-- p1 -->
<g id="node2" class="node"><title>p1</title>
<ellipse fill="none" stroke="black" cx="561" cy="-912" rx="3" ry="3.5"/>
<text text-anchor="middle" x="886" y="-908.9" font-family="Times Roman,serif" font-size="14.00">flatMap</text>
</g>
<!-- p0&#45;&gt;p1 -->
<g id="edge2" class="edge"><title>p0&#45;&gt;p1</title>
<path fill="none" stroke="black" d="M561,-954.39C561,-948.307 561,-935.709 561,-925.82"/>
<polygon fill="black" stroke="black" points="564.5,-925.721 561,-915.721 557.5,-925.721 564.5,-925.721"/>
</g>
<!-- p15 -->
<g id="node4" class="node"><title>p15</title>
<ellipse fill="none" stroke="black" cx="762" cy="-833" rx="67.8823" ry="19.0919"/>
<text text-anchor="middle" x="762" y="-829.9" font-family="Times Roman,serif" font-size="14.00">trimadap_map</text>
</g>
<!-- p1&#45;&gt;p15 -->
<g id="edge4" class="edge"><title>p1&#45;&gt;p15</title>
<path fill="none" stroke="black" d="M562.32,-908.749C565.745,-900.751 575.728,-880.046 591,-870 607.481,-859.159 651.261,-849.794 690.394,-843.198"/>
<polygon fill="black" stroke="black" points="691.451,-846.571 700.751,-841.497 690.316,-839.664 691.451,-846.571"/>
<text text-anchor="middle" x="626" y="-876.9" font-family="Times Roman,serif" font-size="14.00">readunits_ch</text>
</g>
<!-- p16 -->
<g id="node34" class="node"><title>p16</title>
<ellipse fill="none" stroke="black" cx="762" cy="-754" rx="3" ry="3.5"/>
<text text-anchor="middle" x="-4191.5" y="-750.9" font-family="Times Roman,serif" font-size="14.00">groupTuple</text>
</g>
<!-- p15&#45;&gt;p16 -->
<g id="edge32" class="edge"><title>p15&#45;&gt;p16</title>
<path fill="none" stroke="black" d="M762,-813.876C762,-799.629 762,-780.511 762,-767.749"/>
<polygon fill="black" stroke="black" points="765.5,-767.522 762,-757.522 758.5,-767.522 765.5,-767.522"/>
<text text-anchor="middle" x="793" y="-782.9" font-family="Times Roman,serif" font-size="14.00">ru_bam_ch</text>
</g>
<!-- p2 -->
<g id="node6" class="node"><title>p2</title>
<ellipse fill="black" stroke="black" cx="20" cy="-426" rx="3.6" ry="3.6"/>
<text text-anchor="middle" x="198" y="-422.9" font-family="Times Roman,serif" font-size="14.00">Channel.from</text>
</g>
<!-- p3 -->
<g id="node7" class="node"><title>p3</title>
<ellipse fill="none" stroke="black" cx="20" cy="-347" rx="3" ry="3.5"/>
<text text-anchor="middle" x="-515.5" y="-343.9" font-family="Times Roman,serif" font-size="14.00">map</text>
</g>
<!-- p2&#45;&gt;p3 -->
<g id="edge6" class="edge"><title>p2&#45;&gt;p3</title>
<path fill="none" stroke="black" d="M20,-422.19C20,-411.219 20,-379.161 20,-360.638"/>
<polygon fill="black" stroke="black" points="23.5001,-360.59 20,-350.59 16.5001,-360.59 23.5001,-360.59"/>
</g>
<!-- p38 -->
<g id="node9" class="node"><title>p38</title>
<ellipse fill="none" stroke="black" cx="58" cy="-253" rx="3" ry="3.5"/>
<text text-anchor="middle" x="-1179.5" y="-249.9" font-family="Times Roman,serif" font-size="14.00">combine</text>
</g>
<!-- p3&#45;&gt;p38 -->
<g id="edge8" class="edge"><title>p3&#45;&gt;p38</title>
<path fill="none" stroke="black" d="M19.1878,-343.474C17.2403,-334.24 13.0327,-308.767 21,-290 26.2616,-277.606 37.8336,-267.161 46.6449,-260.562"/>
<polygon fill="black" stroke="black" points="48.6886,-263.405 54.9367,-254.848 44.7165,-257.641 48.6886,-263.405"/>
<text text-anchor="middle" x="47.5" y="-296.9" font-family="Times Roman,serif" font-size="14.00">cont_vcfs</text>
</g>
<!-- p39 -->
<g id="node86" class="node"><title>p39</title>
<ellipse fill="none" stroke="black" cx="58" cy="-159" rx="58.1882" ry="19.0919"/>
<text text-anchor="middle" x="58" y="-155.9" font-family="Times Roman,serif" font-size="14.00">verifybamid</text>
</g>
<!-- p38&#45;&gt;p39 -->
<g id="edge88" class="edge"><title>p38&#45;&gt;p39</title>
<path fill="none" stroke="black" d="M58,-249.43C58,-239.471 58,-210.642 58,-188.184"/>
<polygon fill="black" stroke="black" points="61.5001,-188.093 58,-178.093 54.5001,-188.093 61.5001,-188.093"/>
</g>
<!-- p4 -->
<g id="node11" class="node"><title>p4</title>
<ellipse fill="black" stroke="black" cx="200" cy="-693" rx="3.6" ry="3.6"/>
<text text-anchor="middle" x="-1675.5" y="-689.9" font-family="Times Roman,serif" font-size="14.00">Channel.fromPath</text>
</g>
<!-- p5 -->
<g id="node12" class="node"><title>p5</title>
<ellipse fill="none" stroke="black" cx="200" cy="-599" rx="3" ry="3.5"/>
<text text-anchor="middle" x="-2197" y="-595.9" font-family="Times Roman,serif" font-size="14.00">splitText</text>
</g>
<!-- p4&#45;&gt;p5 -->
<g id="edge10" class="edge"><title>p4&#45;&gt;p5</title>
<path fill="none" stroke="black" d="M200,-688.961C200,-675.918 200,-634.511 200,-612.716"/>
<polygon fill="black" stroke="black" points="203.5,-612.513 200,-602.513 196.5,-612.513 203.5,-612.513"/>
</g>
<!-- p6 -->
<g id="node14" class="node"><title>p6</title>
<ellipse fill="none" stroke="black" cx="200" cy="-505" rx="3" ry="3.5"/>
<text text-anchor="middle" x="-2729.5" y="-501.9" font-family="Times Roman,serif" font-size="14.00">filter</text>
</g>
<!-- p5&#45;&gt;p6 -->
<g id="edge12" class="edge"><title>p5&#45;&gt;p6</title>
<path fill="none" stroke="black" d="M200,-595.43C200,-582.925 200,-540.668 200,-518.63"/>
<polygon fill="black" stroke="black" points="203.5,-518.574 200,-508.574 196.5,-518.574 203.5,-518.574"/>
</g>
<!-- p7 -->
<g id="node16" class="node"><title>p7</title>
<ellipse fill="none" stroke="black" cx="200" cy="-426" rx="3" ry="3.5"/>
<text text-anchor="middle" x="-3257" y="-422.9" font-family="Times Roman,serif" font-size="14.00">collate</text>
</g>
<!-- p6&#45;&gt;p7 -->
<g id="edge14" class="edge"><title>p6&#45;&gt;p7</title>
<path fill="none" stroke="black" d="M200,-501.19C200,-490.219 200,-458.161 200,-439.638"/>
<polygon fill="black" stroke="black" points="203.5,-439.59 200,-429.59 196.5,-439.59 203.5,-439.59"/>
</g>
<!-- p8 -->
<g id="node18" class="node"><title>p8</title>
<ellipse fill="none" stroke="black" cx="200" cy="-347" rx="3" ry="3.5"/>
<text text-anchor="middle" x="-3790.5" y="-343.9" font-family="Times Roman,serif" font-size="14.00">map</text>
</g>
<!-- p7&#45;&gt;p8 -->
<g id="edge16" class="edge"><title>p7&#45;&gt;p8</title>
<path fill="none" stroke="black" d="M200,-422.19C200,-411.219 200,-379.161 200,-360.638"/>
<polygon fill="black" stroke="black" points="203.5,-360.59 200,-350.59 196.5,-360.59 203.5,-360.59"/>
</g>
<!-- p47 -->
<g id="node20" class="node"><title>p47</title>
<ellipse fill="none" stroke="black" cx="273" cy="-253" rx="3" ry="3.5"/>
<text text-anchor="middle" x="-4239.5" y="-249.9" font-family="Times Roman,serif" font-size="14.00">combine</text>
</g>
<!-- p8&#45;&gt;p47 -->
<g id="edge18" class="edge"><title>p8&#45;&gt;p47</title>
<path fill="none" stroke="black" d="M198.828,-343.505C195.846,-333.906 189.015,-306.738 201,-290 214.75,-270.797 230.609,-283.919 251,-272 255.384,-269.437 259.721,-265.954 263.37,-262.669"/>
<polygon fill="black" stroke="black" points="265.95,-265.042 270.661,-255.551 261.06,-260.033 265.95,-265.042"/>
<text text-anchor="middle" x="240" y="-296.9" font-family="Times Roman,serif" font-size="14.00">region_list_ch</text>
</g>
<!-- p53 -->
<g id="node98" class="node"><title>p53</title>
<ellipse fill="none" stroke="black" cx="375" cy="-159" rx="41.2167" ry="19.0919"/>
<text text-anchor="middle" x="375" y="-155.9" font-family="Times Roman,serif" font-size="14.00">gatk_hc</text>
</g>
<!-- p47&#45;&gt;p53 -->
<g id="edge100" class="edge"><title>p47&#45;&gt;p53</title>
<path fill="none" stroke="black" d="M274.532,-249.516C278.88,-239.944 292.15,-212.839 310,-196 317.651,-188.783 326.967,-182.428 336.13,-177.113"/>
<polygon fill="black" stroke="black" points="338.09,-180.03 345.173,-172.152 334.722,-173.893 338.09,-180.03"/>
</g>
<!-- p9 -->
<g id="node22" class="node"><title>p9</title>
<ellipse fill="black" stroke="black" cx="654" cy="-912" rx="3.6" ry="3.6"/>
</g>
<!-- p9&#45;&gt;p15 -->
<g id="edge20" class="edge"><title>p9&#45;&gt;p15</title>
<path fill="none" stroke="black" d="M655.43,-908.48C658.788,-900.602 667.897,-881.353 681,-870 689.23,-862.869 699.063,-856.861 708.995,-851.898"/>
<polygon fill="black" stroke="black" points="710.529,-855.044 718.099,-847.631 707.559,-848.705 710.529,-855.044"/>
<text text-anchor="middle" x="689" y="-876.9" font-family="Times Roman,serif" font-size="14.00">ref</text>
</g>
<!-- p10 -->
<g id="node24" class="node"><title>p10</title>
<ellipse fill="black" stroke="black" cx="693" cy="-912" rx="3.6" ry="3.6"/>
</g>
<!-- p10&#45;&gt;p15 -->
<g id="edge22" class="edge"><title>p10&#45;&gt;p15</title>
<path fill="none" stroke="black" d="M694.018,-908.171C696.243,-900.34 702.146,-882.204 712,-870 715.825,-865.264 720.389,-860.819 725.183,-856.767"/>
<polygon fill="black" stroke="black" points="727.67,-859.264 733.376,-850.337 723.348,-853.758 727.67,-859.264"/>
<text text-anchor="middle" x="735" y="-876.9" font-family="Times Roman,serif" font-size="14.00">ref_amb</text>
</g>
<!-- p11 -->
<g id="node26" class="node"><title>p11</title>
<ellipse fill="black" stroke="black" cx="762" cy="-912" rx="3.6" ry="3.6"/>
</g>
<!-- p11&#45;&gt;p15 -->
<g id="edge24" class="edge"><title>p11&#45;&gt;p15</title>
<path fill="none" stroke="black" d="M762,-908.19C762,-899.971 762,-879.918 762,-862.587"/>
<polygon fill="black" stroke="black" points="765.5,-862.278 762,-852.278 758.5,-862.278 765.5,-862.278"/>
<text text-anchor="middle" x="783" y="-876.9" font-family="Times Roman,serif" font-size="14.00">ref_ann</text>
</g>
<!-- p12 -->
<g id="node28" class="node"><title>p12</title>
<ellipse fill="black" stroke="black" cx="827" cy="-912" rx="3.6" ry="3.6"/>
</g>
<!-- p12&#45;&gt;p15 -->
<g id="edge26" class="edge"><title>p12&#45;&gt;p15</title>
<path fill="none" stroke="black" d="M825.595,-908.242C822.6,-900.541 815.036,-882.632 805,-870 801.715,-865.865 797.919,-861.839 793.971,-858.057"/>
<polygon fill="black" stroke="black" points="796.054,-855.223 786.285,-851.123 791.365,-860.42 796.054,-855.223"/>
<text text-anchor="middle" x="838.5" y="-876.9" font-family="Times Roman,serif" font-size="14.00">ref_bwt</text>
</g>
<!-- p13 -->
<g id="node30" class="node"><title>p13</title>
<ellipse fill="black" stroke="black" cx="893" cy="-912" rx="3.6" ry="3.6"/>
</g>
<!-- p13&#45;&gt;p15 -->
<g id="edge28" class="edge"><title>p13&#45;&gt;p15</title>
<path fill="none" stroke="black" d="M891.458,-908.404C887.838,-900.372 878.03,-880.827 864,-870 852.246,-860.93 838.062,-853.938 824.058,-848.604"/>
<polygon fill="black" stroke="black" points="825.019,-845.23 814.424,-845.171 822.669,-851.824 825.019,-845.23"/>
<text text-anchor="middle" x="901.5" y="-876.9" font-family="Times Roman,serif" font-size="14.00">ref_pac</text>
</g>
<!-- p14 -->
<g id="node32" class="node"><title>p14</title>
<ellipse fill="black" stroke="black" cx="957" cy="-912" rx="3.6" ry="3.6"/>
</g>
<!-- p14&#45;&gt;p15 -->
<g id="edge30" class="edge"><title>p14&#45;&gt;p15</title>
<path fill="none" stroke="black" d="M955.378,-908.273C951.561,-899.97 941.177,-879.909 926,-870 910.296,-859.746 869.028,-850.463 831.821,-843.76"/>
<polygon fill="black" stroke="black" points="832.42,-840.311 821.965,-842.026 831.207,-847.206 832.42,-840.311"/>
<text text-anchor="middle" x="961" y="-876.9" font-family="Times Roman,serif" font-size="14.00">ref_sa</text>
</g>
<!-- p17 -->
<g id="node36" class="node"><title>p17</title>
<ellipse fill="none" stroke="black" cx="762" cy="-693" rx="61.0181" ry="19.0919"/>
<text text-anchor="middle" x="762" y="-689.9" font-family="Times Roman,serif" font-size="14.00">merge_bams</text>
</g>
<!-- p16&#45;&gt;p17 -->
<g id="edge34" class="edge"><title>p16&#45;&gt;p17</title>
<path fill="none" stroke="black" d="M762,-750.367C762,-744.711 762,-733.287 762,-722.112"/>
<polygon fill="black" stroke="black" points="765.5,-722.092 762,-712.092 758.5,-722.092 765.5,-722.092"/>
</g>
<!-- p18 -->
<g id="node38" class="node"><title>p18</title>
<ellipse fill="none" stroke="black" cx="762" cy="-599" rx="75.1594" ry="19.0919"/>
<text text-anchor="middle" x="762" y="-595.9" font-family="Times Roman,serif" font-size="14.00">mark_duplicates</text>
</g>
<!-- p17&#45;&gt;p18 -->
<g id="edge36" class="edge"><title>p17&#45;&gt;p18</title>
<path fill="none" stroke="black" d="M762,-673.978C762,-660.941 762,-643.388 762,-628.544"/>
<polygon fill="black" stroke="black" points="765.5,-628.317 762,-618.317 758.5,-628.317 765.5,-628.317"/>
<text text-anchor="middle" x="808" y="-642.9" font-family="Times Roman,serif" font-size="14.00">merged_bam_ch</text>
</g>
<!-- p26 -->
<g id="node40" class="node"><title>p26</title>
<ellipse fill="none" stroke="black" cx="504" cy="-505" rx="92.839" ry="19.0919"/>
<text text-anchor="middle" x="504" y="-501.9" font-family="Times Roman,serif" font-size="14.00">gatk_recalibrate_info</text>
</g>
<!-- p18&#45;&gt;p26 -->
<g id="edge38" class="edge"><title>p18&#45;&gt;p26</title>
<path fill="none" stroke="black" d="M728.718,-581.803C717.044,-575.667 703.884,-568.631 692,-562 676.691,-553.457 674.256,-548.564 658,-542 634.806,-532.635 608.651,-525.254 584.567,-519.629"/>
<polygon fill="black" stroke="black" points="585.27,-516.199 574.744,-517.403 583.723,-523.026 585.27,-516.199"/>
<text text-anchor="middle" x="737.5" y="-548.9" font-family="Times Roman,serif" font-size="14.00">dedup_bam1_ch</text>
</g>
<!-- p27 -->
<g id="node42" class="node"><title>p27</title>
<ellipse fill="none" stroke="black" cx="538" cy="-426" rx="3" ry="3.5"/>
<text text-anchor="middle" x="-4388.5" y="-422.9" font-family="Times Roman,serif" font-size="14.00">join</text>
</g>
<!-- p18&#45;&gt;p27 -->
<g id="edge40" class="edge"><title>p18&#45;&gt;p27</title>
<path fill="none" stroke="black" d="M777.08,-580.377C784.54,-568.774 790.502,-553.852 783,-542 755.564,-498.654 597.174,-445.008 550.771,-430.041"/>
<polygon fill="black" stroke="black" points="551.61,-426.635 541.019,-426.938 549.487,-433.306 551.61,-426.635"/>
<text text-anchor="middle" x="808.5" y="-501.9" font-family="Times Roman,serif" font-size="14.00">dedup_bam2_ch</text>
</g>
<!-- p26&#45;&gt;p27 -->
<g id="edge56" class="edge"><title>p26&#45;&gt;p27</title>
<path fill="none" stroke="black" d="M512.23,-485.876C518.49,-471.332 526.934,-451.713 532.422,-438.96"/>
<polygon fill="black" stroke="black" points="535.746,-440.091 536.484,-429.522 529.316,-437.324 535.746,-440.091"/>
<text text-anchor="middle" x="549.5" y="-454.9" font-family="Times Roman,serif" font-size="14.00">bqsr_ch</text>
</g>
<!-- p31 -->
<g id="node59" class="node"><title>p31</title>
<ellipse fill="none" stroke="black" cx="509" cy="-347" rx="94.7523" ry="19.0919"/>
<text text-anchor="middle" x="509" y="-343.9" font-family="Times Roman,serif" font-size="14.00">gatk_recalibrate_bam</text>
</g>
<!-- p27&#45;&gt;p31 -->
<g id="edge58" class="edge"><title>p27&#45;&gt;p31</title>
<path fill="none" stroke="black" d="M536.913,-422.489C534.651,-415.245 529.215,-398.133 524,-384 522.988,-381.257 521.902,-378.413 520.794,-375.576"/>
<polygon fill="black" stroke="black" points="523.975,-374.104 517.018,-366.114 517.474,-376.699 523.975,-374.104"/>
</g>
<!-- p19 -->
<g id="node44" class="node"><title>p19</title>
<ellipse fill="black" stroke="black" cx="592" cy="-599" rx="3.6" ry="3.6"/>
</g>
<!-- p19&#45;&gt;p26 -->
<g id="edge42" class="edge"><title>p19&#45;&gt;p26</title>
<path fill="none" stroke="black" d="M591.448,-595.216C589.836,-585.359 584.311,-558.513 570,-542 565.268,-536.54 559.523,-531.719 553.419,-527.513"/>
<polygon fill="black" stroke="black" points="555.258,-524.535 544.933,-522.158 551.522,-530.455 555.258,-524.535"/>
<text text-anchor="middle" x="590" y="-548.9" font-family="Times Roman,serif" font-size="14.00">ref</text>
</g>
<!-- p20 -->
<g id="node46" class="node"><title>p20</title>
<ellipse fill="black" stroke="black" cx="631" cy="-599" rx="3.6" ry="3.6"/>
</g>
<!-- p20&#45;&gt;p26 -->
<g id="edge44" class="edge"><title>p20&#45;&gt;p26</title>
<path fill="none" stroke="black" d="M630.138,-595.365C627.595,-585.408 619.2,-557.411 602,-542 593.619,-534.491 583.565,-528.45 573.135,-523.607"/>
<polygon fill="black" stroke="black" points="574.476,-520.374 563.906,-519.652 571.719,-526.808 574.476,-520.374"/>
<text text-anchor="middle" x="635.5" y="-548.9" font-family="Times Roman,serif" font-size="14.00">ref_fai</text>
</g>
<!-- p21 -->
<g id="node48" class="node"><title>p21</title>
<ellipse fill="black" stroke="black" cx="238" cy="-599" rx="3.6" ry="3.6"/>
</g>
<!-- p21&#45;&gt;p26 -->
<g id="edge46" class="edge"><title>p21&#45;&gt;p26</title>
<path fill="none" stroke="black" d="M239.082,-595.452C242.404,-585.223 253.488,-555.542 274,-542 295.8,-527.608 354.16,-518.32 406.634,-512.649"/>
<polygon fill="black" stroke="black" points="407.113,-516.118 416.695,-511.597 406.386,-509.156 407.113,-516.118"/>
<text text-anchor="middle" x="295.5" y="-548.9" font-family="Times Roman,serif" font-size="14.00">ref_dict</text>
</g>
<!-- p22 -->
<g id="node50" class="node"><title>p22</title>
<ellipse fill="black" stroke="black" cx="304" cy="-599" rx="3.6" ry="3.6"/>
</g>
<!-- p22&#45;&gt;p26 -->
<g id="edge48" class="edge"><title>p22&#45;&gt;p26</title>
<path fill="none" stroke="black" d="M305,-595.514C308.075,-585.452 318.393,-556.18 338,-542 351.392,-532.315 384.816,-524.025 418.191,-517.762"/>
<polygon fill="black" stroke="black" points="418.842,-521.201 428.054,-515.967 417.589,-514.314 418.842,-521.201"/>
<text text-anchor="middle" x="354.5" y="-548.9" font-family="Times Roman,serif" font-size="14.00">dbsnp</text>
</g>
<!-- p23 -->
<g id="node52" class="node"><title>p23</title>
<ellipse fill="black" stroke="black" cx="360" cy="-599" rx="3.6" ry="3.6"/>
</g>
<!-- p23&#45;&gt;p26 -->
<g id="edge50" class="edge"><title>p23&#45;&gt;p26</title>
<path fill="none" stroke="black" d="M360.892,-595.32C363.524,-585.249 372.211,-556.986 390,-542 400.437,-533.208 413.008,-526.492 425.934,-521.366"/>
<polygon fill="black" stroke="black" points="427.196,-524.632 435.384,-517.908 424.791,-518.058 427.196,-524.632"/>
<text text-anchor="middle" x="425" y="-548.9" font-family="Times Roman,serif" font-size="14.00">dbsnp_index</text>
</g>
<!-- p24 -->
<g id="node54" class="node"><title>p24</title>
<ellipse fill="black" stroke="black" cx="453" cy="-599" rx="3.6" ry="3.6"/>
</g>
<!-- p24&#45;&gt;p26 -->
<g id="edge52" class="edge"><title>p24&#45;&gt;p26</title>
<path fill="none" stroke="black" d="M453.675,-595.463C455.545,-586.204 461.371,-560.675 472,-542 473.976,-538.529 476.305,-535.084 478.793,-531.773"/>
<polygon fill="black" stroke="black" points="481.611,-533.854 485.187,-523.881 476.172,-529.448 481.611,-533.854"/>
<text text-anchor="middle" x="486" y="-548.9" font-family="Times Roman,serif" font-size="14.00">mills</text>
</g>
<!-- p25 -->
<g id="node56" class="node"><title>p25</title>
<ellipse fill="black" stroke="black" cx="504" cy="-599" rx="3.6" ry="3.6"/>
</g>
<!-- p25&#45;&gt;p26 -->
<g id="edge54" class="edge"><title>p25&#45;&gt;p26</title>
<path fill="none" stroke="black" d="M504,-594.961C504,-584.633 504,-556.518 504,-534.441"/>
<polygon fill="black" stroke="black" points="507.5,-534.192 504,-524.192 500.5,-534.192 507.5,-534.192"/>
<text text-anchor="middle" x="536.5" y="-548.9" font-family="Times Roman,serif" font-size="14.00">mills_index</text>
</g>
<!-- p31&#45;&gt;p38 -->
<g id="edge68" class="edge"><title>p31&#45;&gt;p38</title>
<path fill="none" stroke="black" d="M416.965,-341.969C307.689,-335.45 136.78,-323.33 110,-310 89.751,-299.921 73.5905,-278.339 64.9349,-264.814"/>
<polygon fill="black" stroke="black" points="67.8251,-262.828 59.6675,-256.068 61.8287,-266.44 67.8251,-262.828"/>
<text text-anchor="middle" x="150.5" y="-296.9" font-family="Times Roman,serif" font-size="14.00">bqsr_bam_ch2</text>
</g>
<!-- p31&#45;&gt;p47 -->
<g id="edge70" class="edge"><title>p31&#45;&gt;p47</title>
<path fill="none" stroke="black" d="M465.607,-329.993C450.979,-323.987 434.652,-316.984 420,-310 403.126,-301.957 400.575,-296.367 383,-290 345.057,-276.255 330.026,-290.187 294,-272 289.584,-269.77 285.394,-266.358 281.936,-263.037"/>
<polygon fill="black" stroke="black" points="284.497,-260.651 275.133,-255.696 279.363,-265.41 284.497,-260.651"/>
<text text-anchor="middle" x="460.5" y="-296.9" font-family="Times Roman,serif" font-size="14.00">bqsr_bam_ch3</text>
</g>
<!-- p36 -->
<g id="node67" class="node"><title>p36</title>
<ellipse fill="none" stroke="black" cx="189" cy="-253" rx="53.033" ry="19.0919"/>
<text text-anchor="middle" x="189" y="-249.9" font-family="Times Roman,serif" font-size="14.00">sample_qc</text>
</g>
<!-- p31&#45;&gt;p36 -->
<g id="edge66" class="edge"><title>p31&#45;&gt;p36</title>
<path fill="none" stroke="black" d="M425.599,-337.788C376.529,-331.327 319.918,-321.756 298,-310 287.195,-304.205 289.115,-296.928 279,-290 266.887,-281.703 252.626,-274.776 239.072,-269.244"/>
<polygon fill="black" stroke="black" points="239.956,-265.832 229.368,-265.463 237.415,-272.354 239.956,-265.832"/>
<text text-anchor="middle" x="338.5" y="-296.9" font-family="Times Roman,serif" font-size="14.00">bqsr_bam_ch1</text>
</g>
<!-- p42 -->
<g id="node71" class="node"><title>p42</title>
<ellipse fill="none" stroke="black" cx="830" cy="-253" rx="53.033" ry="19.0919"/>
<text text-anchor="middle" x="830" y="-249.9" font-family="Times Roman,serif" font-size="14.00">bam2cram</text>
</g>
<!-- p31&#45;&gt;p42 -->
<g id="edge72" class="edge"><title>p31&#45;&gt;p42</title>
<path fill="none" stroke="black" d="M590.35,-337.064C642.239,-330.008 704.234,-320.041 729,-310 743.51,-304.117 744.565,-298.039 758,-290 767.787,-284.144 778.605,-278.282 788.816,-273.007"/>
<polygon fill="black" stroke="black" points="790.652,-276 797.977,-268.344 787.477,-269.761 790.652,-276"/>
<text text-anchor="middle" x="798.5" y="-296.9" font-family="Times Roman,serif" font-size="14.00">bqsr_bam_ch4</text>
</g>
<!-- p46 -->
<g id="node73" class="node"><title>p46</title>
<ellipse fill="none" stroke="black" cx="1023" cy="-253" rx="48.0833" ry="19.0919"/>
<text text-anchor="middle" x="1023" y="-249.9" font-family="Times Roman,serif" font-size="14.00">freebayes</text>
</g>
<!-- p31&#45;&gt;p46 -->
<g id="edge74" class="edge"><title>p31&#45;&gt;p46</title>
<path fill="none" stroke="black" d="M602.688,-343.616C685.365,-339.348 798.798,-329.985 839,-310 849.979,-304.542 847.335,-296.047 858,-290 876.657,-279.421 927.77,-268.864 968.211,-261.751"/>
<polygon fill="black" stroke="black" points="968.978,-265.171 978.236,-260.019 967.786,-258.273 968.978,-265.171"/>
<text text-anchor="middle" x="898.5" y="-296.9" font-family="Times Roman,serif" font-size="14.00">bqsr_bam_ch5</text>
</g>
<!-- p32 -->
<g id="node75" class="node"><title>p32</title>
<ellipse fill="none" stroke="black" cx="581" cy="-253" rx="3" ry="3.5"/>
<text text-anchor="middle" x="-4535" y="-249.9" font-family="Times Roman,serif" font-size="14.00">collect</text>
</g>
<!-- p31&#45;&gt;p32 -->
<g id="edge76" class="edge"><title>p31&#45;&gt;p32</title>
<path fill="none" stroke="black" d="M504.675,-327.922C503.076,-316.143 503.075,-301.195 510,-290 513.407,-284.492 549.485,-267.393 568.857,-258.5"/>
<polygon fill="black" stroke="black" points="570.486,-261.604 578.141,-254.28 567.589,-255.232 570.486,-261.604"/>
<text text-anchor="middle" x="562.5" y="-296.9" font-family="Times Roman,serif" font-size="14.00">bqsr_bam_only_ch</text>
</g>
<!-- p33 -->
<g id="node77" class="node"><title>p33</title>
<ellipse fill="none" stroke="black" cx="637" cy="-253" rx="3" ry="3.5"/>
<text text-anchor="middle" x="-4625.5" y="-249.9" font-family="Times Roman,serif" font-size="14.00">collect</text>
</g>
<!-- p31&#45;&gt;p33 -->
<g id="edge78" class="edge"><title>p31&#45;&gt;p33</title>
<path fill="none" stroke="black" d="M575.907,-333.444C590.149,-328.043 604.146,-320.507 615,-310 627.013,-298.371 632.573,-279.453 635.073,-266.631"/>
<polygon fill="black" stroke="black" points="638.547,-267.064 636.642,-256.642 631.632,-265.978 638.547,-267.064"/>
<text text-anchor="middle" x="676.5" y="-296.9" font-family="Times Roman,serif" font-size="14.00">bqsr_bai_only_ch</text>
</g>
<!-- p28 -->
<g id="node61" class="node"><title>p28</title>
<ellipse fill="black" stroke="black" cx="571" cy="-426" rx="3.6" ry="3.6"/>
</g>
<!-- p28&#45;&gt;p31 -->
<g id="edge60" class="edge"><title>p28&#45;&gt;p31</title>
<path fill="none" stroke="black" d="M569.016,-422.85C564.492,-415.73 552.954,-397.931 542,-384 539.232,-380.479 536.226,-376.861 533.193,-373.331"/>
<polygon fill="black" stroke="black" points="535.82,-371.019 526.592,-365.815 530.561,-375.638 535.82,-371.019"/>
<text text-anchor="middle" x="565" y="-390.9" font-family="Times Roman,serif" font-size="14.00">ref</text>
</g>
<!-- p29 -->
<g id="node63" class="node"><title>p29</title>
<ellipse fill="black" stroke="black" cx="420" cy="-426" rx="3.6" ry="3.6"/>
</g>
<!-- p29&#45;&gt;p31 -->
<g id="edge62" class="edge"><title>p29&#45;&gt;p31</title>
<path fill="none" stroke="black" d="M420.315,-422.031C421.152,-413.942 424.099,-395.354 434,-384 439.166,-378.075 445.502,-373.002 452.281,-368.684"/>
<polygon fill="black" stroke="black" points="454.146,-371.649 461.051,-363.613 450.642,-365.589 454.146,-371.649"/>
<text text-anchor="middle" x="452.5" y="-390.9" font-family="Times Roman,serif" font-size="14.00">ref_fai</text>
</g>
<!-- p30 -->
<g id="node65" class="node"><title>p30</title>
<ellipse fill="black" stroke="black" cx="480" cy="-426" rx="3.6" ry="3.6"/>
</g>
<!-- p30&#45;&gt;p31 -->
<g id="edge64" class="edge"><title>p30&#45;&gt;p31</title>
<path fill="none" stroke="black" d="M478.759,-422.373C476.414,-414.914 471.999,-397.427 477,-384 478.323,-380.448 480.157,-377.011 482.283,-373.755"/>
<polygon fill="black" stroke="black" points="485.204,-375.696 488.447,-365.61 479.622,-371.472 485.204,-375.696"/>
<text text-anchor="middle" x="498.5" y="-390.9" font-family="Times Roman,serif" font-size="14.00">ref_dict</text>
</g>
<!-- p37 -->
<g id="node84" class="node"><title>p37</title>
<ellipse fill="black" stroke="black" cx="179" cy="-159" rx="1.8" ry="1.8"/>
</g>
<!-- p36&#45;&gt;p37 -->
<g id="edge86" class="edge"><title>p36&#45;&gt;p37</title>
<path fill="none" stroke="black" d="M183.514,-233.947C182.098,-228.226 180.76,-221.901 180,-216 178.037,-200.76 178.087,-183.041 178.431,-171.455"/>
<polygon fill="black" stroke="black" points="181.939,-171.326 178.866,-161.187 174.946,-171.03 181.939,-171.326"/>
<text text-anchor="middle" x="219.5" y="-202.9" font-family="Times Roman,serif" font-size="14.00">sample_qc_ch</text>
</g>
<!-- p34 -->
<g id="node79" class="node"><title>p34</title>
<ellipse fill="none" stroke="black" cx="624" cy="-159" rx="46.1672" ry="19.0919"/>
<text text-anchor="middle" x="624" y="-155.9" font-family="Times Roman,serif" font-size="14.00">indexcov</text>
</g>
<!-- p32&#45;&gt;p34 -->
<g id="edge80" class="edge"><title>p32&#45;&gt;p34</title>
<path fill="none" stroke="black" d="M582.597,-249.533C585.613,-242.983 592.35,-228.341 598,-216 602.335,-206.531 607.064,-196.173 611.286,-186.914"/>
<polygon fill="black" stroke="black" points="614.501,-188.298 615.464,-177.747 608.132,-185.394 614.501,-188.298"/>
</g>
<!-- p33&#45;&gt;p34 -->
<g id="edge82" class="edge"><title>p33&#45;&gt;p34</title>
<path fill="none" stroke="black" d="M636.506,-249.43C635.129,-239.471 631.142,-210.642 628.036,-188.184"/>
<polygon fill="black" stroke="black" points="631.478,-187.519 626.641,-178.093 624.544,-188.478 631.478,-187.519"/>
</g>
<!-- p35 -->
<g id="node82" class="node"><title>p35</title>
<ellipse fill="black" stroke="black" cx="624" cy="-80" rx="1.8" ry="1.8"/>
</g>
<!-- p34&#45;&gt;p35 -->
<g id="edge84" class="edge"><title>p34&#45;&gt;p35</title>
<path fill="none" stroke="black" d="M624,-139.876C624,-125.121 624,-105.142 624,-92.4091"/>
<polygon fill="black" stroke="black" points="627.5,-92.0272 624,-82.0272 620.5,-92.0272 627.5,-92.0272"/>
<text text-anchor="middle" x="659" y="-108.9" font-family="Times Roman,serif" font-size="14.00">indexcov_ch</text>
</g>
<!-- p40 -->
<g id="node88" class="node"><title>p40</title>
<ellipse fill="black" stroke="black" cx="58" cy="-80" rx="1.8" ry="1.8"/>
</g>
<!-- p39&#45;&gt;p40 -->
<g id="edge90" class="edge"><title>p39&#45;&gt;p40</title>
<path fill="none" stroke="black" d="M58,-139.876C58,-125.121 58,-105.142 58,-92.4091"/>
<polygon fill="black" stroke="black" points="61.5001,-92.0272 58,-82.0272 54.5001,-92.0272 61.5001,-92.0272"/>
<text text-anchor="middle" x="101.5" y="-108.9" font-family="Times Roman,serif" font-size="14.00">verifybamid_ch</text>
</g>
<!-- p41 -->
<g id="node90" class="node"><title>p41</title>
<ellipse fill="black" stroke="black" cx="965" cy="-347" rx="3.6" ry="3.6"/>
</g>
<!-- p41&#45;&gt;p42 -->
<g id="edge92" class="edge"><title>p41&#45;&gt;p42</title>
<path fill="none" stroke="black" d="M964.657,-343.342C963.524,-333.325 959.001,-305.191 943,-290 928.467,-276.202 908.706,-267.548 889.773,-262.121"/>
<polygon fill="black" stroke="black" points="890.539,-258.704 879.979,-259.567 888.773,-265.478 890.539,-258.704"/>
<text text-anchor="middle" x="963" y="-296.9" font-family="Times Roman,serif" font-size="14.00">ref</text>
</g>
<!-- p43 -->
<g id="node92" class="node"><title>p43</title>
<ellipse fill="black" stroke="black" cx="1004" cy="-347" rx="3.6" ry="3.6"/>
</g>
<!-- p43&#45;&gt;p46 -->
<g id="edge94" class="edge"><title>p43&#45;&gt;p46</title>
<path fill="none" stroke="black" d="M1003.52,-343.33C1002.45,-334.172 1000.3,-309.635 1005,-290 1005.73,-286.972 1006.73,-283.902 1007.89,-280.892"/>
<polygon fill="black" stroke="black" points="1011.15,-282.17 1012,-271.61 1004.75,-279.335 1011.15,-282.17"/>
<text text-anchor="middle" x="1013" y="-296.9" font-family="Times Roman,serif" font-size="14.00">ref</text>
</g>
<!-- p44 -->
<g id="node94" class="node"><title>p44</title>
<ellipse fill="black" stroke="black" cx="1043" cy="-347" rx="3.6" ry="3.6"/>
</g>
<!-- p44&#45;&gt;p46 -->
<g id="edge96" class="edge"><title>p44&#45;&gt;p46</title>
<path fill="none" stroke="black" d="M1042.24,-343.43C1040.11,-333.426 1033.93,-304.381 1029.14,-281.879"/>
<polygon fill="black" stroke="black" points="1032.57,-281.146 1027.06,-272.093 1025.72,-282.603 1032.57,-281.146"/>
<text text-anchor="middle" x="1052.5" y="-296.9" font-family="Times Roman,serif" font-size="14.00">ref_fai</text>
</g>
<!-- p45 -->
<g id="node96" class="node"><title>p45</title>
<ellipse fill="black" stroke="black" cx="1103" cy="-347" rx="3.6" ry="3.6"/>
</g>
<!-- p45&#45;&gt;p46 -->
<g id="edge98" class="edge"><title>p45&#45;&gt;p46</title>
<path fill="none" stroke="black" d="M1101.9,-343.307C1098.88,-333.669 1089.71,-307.305 1075,-290 1070.26,-284.428 1064.51,-279.27 1058.59,-274.683"/>
<polygon fill="black" stroke="black" points="1060.62,-271.836 1050.47,-268.795 1056.51,-277.501 1060.62,-271.836"/>
<text text-anchor="middle" x="1141.5" y="-296.9" font-family="Times Roman,serif" font-size="14.00">calling_interval_list</text>
</g>
<!-- p54 -->
<g id="node110" class="node"><title>p54</title>
<ellipse fill="none" stroke="black" cx="375" cy="-80" rx="3" ry="3.5"/>
<text text-anchor="middle" x="-4964.5" y="-76.9" font-family="Times Roman,serif" font-size="14.00">groupTuple</text>
</g>
<!-- p53&#45;&gt;p54 -->
<g id="edge112" class="edge"><title>p53&#45;&gt;p54</title>
<path fill="none" stroke="black" d="M375,-139.876C375,-125.629 375,-106.511 375,-93.7495"/>
<polygon fill="black" stroke="black" points="378.5,-93.5221 375,-83.5222 371.5,-93.5222 378.5,-93.5221"/>
<text text-anchor="middle" x="421" y="-108.9" font-family="Times Roman,serif" font-size="14.00">region_gvcf_ch1</text>
</g>
<!-- p48 -->
<g id="node100" class="node"><title>p48</title>
<ellipse fill="black" stroke="black" cx="306" cy="-253" rx="3.6" ry="3.6"/>
</g>
<!-- p48&#45;&gt;p53 -->
<g id="edge102" class="edge"><title>p48&#45;&gt;p53</title>
<path fill="none" stroke="black" d="M306.275,-249.306C307.156,-239.666 310.621,-213.3 323,-196 327.433,-189.805 333.235,-184.269 339.352,-179.485"/>
<polygon fill="black" stroke="black" points="341.701,-182.107 347.788,-173.436 337.622,-176.419 341.701,-182.107"/>
<text text-anchor="middle" x="331" y="-202.9" font-family="Times Roman,serif" font-size="14.00">ref</text>
</g>
<!-- p49 -->
<g id="node102" class="node"><title>p49</title>
<ellipse fill="black" stroke="black" cx="345" cy="-253" rx="3.6" ry="3.6"/>
</g>
<!-- p49&#45;&gt;p53 -->
<g id="edge104" class="edge"><title>p49&#45;&gt;p53</title>
<path fill="none" stroke="black" d="M344.271,-249.255C342.621,-239.925 339.245,-215.027 346,-196 347.374,-192.13 349.328,-188.353 351.581,-184.78"/>
<polygon fill="black" stroke="black" points="354.624,-186.544 357.637,-176.387 348.947,-182.448 354.624,-186.544"/>
<text text-anchor="middle" x="364.5" y="-202.9" font-family="Times Roman,serif" font-size="14.00">ref_fai</text>
</g>
<!-- p50 -->
<g id="node104" class="node"><title>p50</title>
<ellipse fill="black" stroke="black" cx="405" cy="-253" rx="3.6" ry="3.6"/>
</g>
<!-- p50&#45;&gt;p53 -->
<g id="edge106" class="edge"><title>p50&#45;&gt;p53</title>
<path fill="none" stroke="black" d="M403.861,-249.43C400.668,-239.426 391.398,-210.381 384.217,-187.879"/>
<polygon fill="black" stroke="black" points="387.468,-186.556 381.094,-178.093 380.8,-188.684 387.468,-186.556"/>
<text text-anchor="middle" x="414.5" y="-202.9" font-family="Times Roman,serif" font-size="14.00">ref_dict</text>
</g>
<!-- p51 -->
<g id="node106" class="node"><title>p51</title>
<ellipse fill="black" stroke="black" cx="471" cy="-253" rx="3.6" ry="3.6"/>
</g>
<!-- p51&#45;&gt;p53 -->
<g id="edge108" class="edge"><title>p51&#45;&gt;p53</title>
<path fill="none" stroke="black" d="M469.87,-249.504C466.617,-239.902 456.407,-212.728 440,-196 432.703,-188.561 423.594,-182.15 414.525,-176.853"/>
<polygon fill="black" stroke="black" points="415.991,-173.665 405.539,-171.931 412.628,-179.805 415.991,-173.665"/>
<text text-anchor="middle" x="471.5" y="-202.9" font-family="Times Roman,serif" font-size="14.00">dbsnp</text>
</g>
<!-- p52 -->
<g id="node108" class="node"><title>p52</title>
<ellipse fill="black" stroke="black" cx="527" cy="-253" rx="3.6" ry="3.6"/>
</g>
<!-- p52&#45;&gt;p53 -->
<g id="edge110" class="edge"><title>p52&#45;&gt;p53</title>
<path fill="none" stroke="black" d="M525.778,-249.308C522.243,-239.205 511.034,-210.87 492,-196 472.637,-180.873 446.973,-171.866 424.616,-166.535"/>
<polygon fill="black" stroke="black" points="425.129,-163.065 414.611,-164.336 423.626,-169.901 425.129,-163.065"/>
<text text-anchor="middle" x="544" y="-202.9" font-family="Times Roman,serif" font-size="14.00">dbsnp_index</text>
</g>
<!-- p55 -->
<g id="node112" class="node"><title>p55</title>
<ellipse fill="none" stroke="black" cx="375" cy="-19" rx="57.9828" ry="19.0919"/>
<text text-anchor="middle" x="375" y="-15.9" font-family="Times Roman,serif" font-size="14.00">gvcf_merge</text>
</g>
<!-- p54&#45;&gt;p55 -->
<g id="edge114" class="edge"><title>p54&#45;&gt;p55</title>
<path fill="none" stroke="black" d="M375,-76.3669C375,-70.7113 375,-59.2871 375,-48.1119"/>
<polygon fill="black" stroke="black" points="378.5,-48.0916 375,-38.0916 371.5,-48.0917 378.5,-48.0916"/>
</g>
</g>
</svg>
